# xmcd CD database file
#
# Track frame offsets:
#	150
#	15677
#	29946
#	44313
#	59808
#	75202
#	90856
#	108727
#	125968
#	142939
#	159419
#	174797
#	192754
#	205852
#
# Disc length: 2919 seconds
#
# Revision: 0
# Processed by: cddbd v1.5.1PL2 Copyright (c) Steve Scherf et al.
# Submitted via: NeoAudio 9.9.9
#
DISCID=b80b650e
DTITLE=get up and dance special  46 - get up and dance special 46
DYEAR=1900
DGENRE=Country
TTITLE0=Mandy - westlife
TTITLE1=Live and let die - Paul McCartney 
TTITLE2=Mambo Crazy - Dephazz
TTITLE3=Halleluia  Moment - Collin Ray
TTITLE4=Be Strong - Chris de Burgh
TTITLE5=It's up to you - Babrbara Streisand
TTITLE6=Getting Used To you - Selena 
TTITLE7=Meltdown - Missy Elliot
TTITLE8=Hot Tottie - The pussycat Dolls
TTITLE9=Friction Addiction - Fort Minor
TTITLE10=Have A Ball - Michael jackson and Alana J
TTITLE11=Maltese Waltz - Sarah Conner
TTITLE12=A Lust Appetite - Brushwood
TTITLE13=Just Work It  - EYC
EXTD=
EXTT0=
EXTT1=
EXTT2=
EXTT3=
EXTT4=
EXTT5=
EXTT6=
EXTT7=
EXTT8=
EXTT9=
EXTT10=
EXTT11=
EXTT12=
EXTT13=
PLAYORDER=
